<mxfile host="app.diagrams.net" agent="Mozilla/5.0 (Windows NT 10.0; Win64; x64) AppleWebKit/537.36 (KHTML, like Gecko) Chrome/133.0.0.0 Safari/537.36" version="26.0.16">
  <diagram name="第 1 页" id="l0bFxX3lwWYYpKA-d9KW">
    <mxGraphModel dx="1292" dy="674" grid="1" gridSize="10" guides="1" tooltips="1" connect="1" arrows="1" fold="1" page="1" pageScale="1" pageWidth="827" pageHeight="1169" math="0" shadow="0">
      <root>
        <mxCell id="0" />
        <mxCell id="1" parent="0" />
        <mxCell id="34r35kRBPOAVTFGhnLEs-1" value="" style="rounded=0;whiteSpace=wrap;html=1;strokeWidth=2;fillColor=default;movable=1;resizable=1;rotatable=1;deletable=1;editable=1;locked=0;connectable=1;" vertex="1" parent="1">
          <mxGeometry x="100" y="390" width="290" height="280" as="geometry" />
        </mxCell>
        <mxCell id="34r35kRBPOAVTFGhnLEs-2" value="" style="group;strokeWidth=2;fillColor=#FFF0F0;strokeColor=#b85450;movable=1;resizable=1;rotatable=1;deletable=1;editable=1;locked=0;connectable=1;container=0;" vertex="1" connectable="0" parent="1">
          <mxGeometry x="480" y="390" width="360" height="550" as="geometry" />
        </mxCell>
        <mxCell id="34r35kRBPOAVTFGhnLEs-3" value="" style="group;strokeWidth=2;fillColor=#F5F7F9;strokeColor=#6c8ebf;container=0;movable=1;resizable=1;rotatable=1;deletable=1;editable=1;locked=0;connectable=1;" vertex="1" connectable="0" parent="1">
          <mxGeometry x="100" y="390" width="290" height="300" as="geometry" />
        </mxCell>
        <mxCell id="34r35kRBPOAVTFGhnLEs-4" style="edgeStyle=orthogonalEdgeStyle;rounded=0;orthogonalLoop=1;jettySize=auto;html=1;shape=flexArrow;fillColor=#F4EDF7;strokeColor=#9673a6;strokeWidth=2;movable=1;resizable=1;rotatable=1;deletable=1;editable=1;locked=0;connectable=1;" edge="1" parent="1" source="34r35kRBPOAVTFGhnLEs-20">
          <mxGeometry relative="1" as="geometry">
            <mxPoint x="245" y="690" as="targetPoint" />
          </mxGeometry>
        </mxCell>
        <mxCell id="34r35kRBPOAVTFGhnLEs-5" value="" style="edgeStyle=orthogonalEdgeStyle;rounded=0;orthogonalLoop=1;jettySize=auto;html=1;shape=flexArrow;fillColor=#F5F7F9;strokeColor=#6c8ebf;strokeWidth=2;movable=1;resizable=1;rotatable=1;deletable=1;editable=1;locked=0;connectable=1;" edge="1" parent="1" source="34r35kRBPOAVTFGhnLEs-1">
          <mxGeometry relative="1" as="geometry">
            <mxPoint x="480" y="530" as="targetPoint" />
          </mxGeometry>
        </mxCell>
        <mxCell id="34r35kRBPOAVTFGhnLEs-6" style="edgeStyle=orthogonalEdgeStyle;rounded=0;orthogonalLoop=1;jettySize=auto;html=1;entryX=1;entryY=0.5;entryDx=0;entryDy=0;shape=flexArrow;fillColor=#FFF0F0;strokeColor=#b85450;strokeWidth=2;movable=1;resizable=1;rotatable=1;deletable=1;editable=1;locked=0;connectable=1;" edge="1" parent="1" target="34r35kRBPOAVTFGhnLEs-20">
          <mxGeometry relative="1" as="geometry">
            <mxPoint x="478" y="835" as="sourcePoint" />
          </mxGeometry>
        </mxCell>
        <mxCell id="34r35kRBPOAVTFGhnLEs-7" value="缺陷定位" style="text;html=1;align=center;verticalAlign=middle;whiteSpace=wrap;rounded=0;fontSize=16;strokeWidth=2;fontStyle=1;movable=1;resizable=1;rotatable=1;deletable=1;editable=1;locked=0;connectable=1;" vertex="1" parent="1">
          <mxGeometry x="205" y="394" width="80" height="30" as="geometry" />
        </mxCell>
        <mxCell id="34r35kRBPOAVTFGhnLEs-8" style="edgeStyle=orthogonalEdgeStyle;rounded=0;orthogonalLoop=1;jettySize=auto;html=1;entryX=0;entryY=0.5;entryDx=0;entryDy=0;strokeWidth=2;movable=1;resizable=1;rotatable=1;deletable=1;editable=1;locked=0;connectable=1;" edge="1" parent="1" source="34r35kRBPOAVTFGhnLEs-10" target="34r35kRBPOAVTFGhnLEs-14">
          <mxGeometry relative="1" as="geometry" />
        </mxCell>
        <mxCell id="34r35kRBPOAVTFGhnLEs-9" style="edgeStyle=orthogonalEdgeStyle;rounded=0;orthogonalLoop=1;jettySize=auto;html=1;entryX=0;entryY=0.5;entryDx=0;entryDy=0;exitX=0.84;exitY=0;exitDx=0;exitDy=0;exitPerimeter=0;strokeWidth=2;movable=1;resizable=1;rotatable=1;deletable=1;editable=1;locked=0;connectable=1;" edge="1" parent="1" source="34r35kRBPOAVTFGhnLEs-10" target="34r35kRBPOAVTFGhnLEs-35">
          <mxGeometry relative="1" as="geometry" />
        </mxCell>
        <mxCell id="34r35kRBPOAVTFGhnLEs-10" value="缺陷定位引擎" style="rounded=0;whiteSpace=wrap;html=1;fillColor=#ECF3FE;strokeWidth=2;fontSize=16;strokeColor=#6c8ebf;align=center;verticalAlign=middle;fontFamily=Helvetica;movable=1;resizable=1;rotatable=1;deletable=1;editable=1;locked=0;connectable=1;" vertex="1" parent="1">
          <mxGeometry x="110" y="620" width="160" height="40" as="geometry" />
        </mxCell>
        <mxCell id="34r35kRBPOAVTFGhnLEs-11" value="" style="edgeStyle=orthogonalEdgeStyle;rounded=0;orthogonalLoop=1;jettySize=auto;html=1;strokeWidth=2;movable=1;resizable=1;rotatable=1;deletable=1;editable=1;locked=0;connectable=1;" edge="1" parent="1" source="34r35kRBPOAVTFGhnLEs-12" target="34r35kRBPOAVTFGhnLEs-10">
          <mxGeometry relative="1" as="geometry">
            <Array as="points">
              <mxPoint x="160" y="620" />
              <mxPoint x="160" y="620" />
            </Array>
          </mxGeometry>
        </mxCell>
        <mxCell id="34r35kRBPOAVTFGhnLEs-12" value="测试执行结果" style="rounded=1;whiteSpace=wrap;html=1;fontSize=16;strokeWidth=2;fillColor=#ECF3FE;strokeColor=#6c8ebf;movable=1;resizable=1;rotatable=1;deletable=1;editable=1;locked=0;connectable=1;" vertex="1" parent="1">
          <mxGeometry x="110" y="550" width="100" height="40" as="geometry" />
        </mxCell>
        <mxCell id="34r35kRBPOAVTFGhnLEs-13" style="edgeStyle=orthogonalEdgeStyle;rounded=0;orthogonalLoop=1;jettySize=auto;html=1;entryX=0;entryY=0.5;entryDx=0;entryDy=0;strokeWidth=2;movable=1;resizable=1;rotatable=1;deletable=1;editable=1;locked=0;connectable=1;dashed=1;" edge="1" parent="1" source="34r35kRBPOAVTFGhnLEs-14" target="34r35kRBPOAVTFGhnLEs-41">
          <mxGeometry relative="1" as="geometry" />
        </mxCell>
        <mxCell id="34r35kRBPOAVTFGhnLEs-14" value="待修复SQL&lt;span class=&quot;eusoft-eudic-chrome-extension-translate-content&quot;&gt;&lt;/span&gt;" style="rounded=1;whiteSpace=wrap;html=1;fillColor=#ECF3FE;strokeWidth=2;fontSize=16;strokeColor=#6c8ebf;align=center;verticalAlign=middle;fontFamily=Helvetica;movable=1;resizable=1;rotatable=1;deletable=1;editable=1;locked=0;connectable=1;" vertex="1" parent="1">
          <mxGeometry x="290" y="620" width="90" height="40" as="geometry" />
        </mxCell>
        <mxCell id="34r35kRBPOAVTFGhnLEs-15" style="edgeStyle=orthogonalEdgeStyle;rounded=0;orthogonalLoop=1;jettySize=auto;html=1;entryX=0.75;entryY=0;entryDx=0;entryDy=0;strokeWidth=2;movable=1;resizable=1;rotatable=1;deletable=1;editable=1;locked=0;connectable=1;" edge="1" parent="1" source="34r35kRBPOAVTFGhnLEs-16" target="34r35kRBPOAVTFGhnLEs-10">
          <mxGeometry relative="1" as="geometry">
            <Array as="points">
              <mxPoint x="230" y="550" />
              <mxPoint x="230" y="550" />
            </Array>
          </mxGeometry>
        </mxCell>
        <mxCell id="34r35kRBPOAVTFGhnLEs-16" value="" style="rounded=1;whiteSpace=wrap;html=1;strokeWidth=2;fillColor=#ECF3FE;fontSize=16;strokeColor=#6c8ebf;align=center;verticalAlign=middle;fontFamily=Helvetica;movable=1;resizable=1;rotatable=1;deletable=1;editable=1;locked=0;connectable=1;" vertex="1" parent="1">
          <mxGeometry x="110" y="430" width="270" height="90" as="geometry" />
        </mxCell>
        <mxCell id="34r35kRBPOAVTFGhnLEs-17" value="测试用例" style="strokeWidth=2;html=1;shape=mxgraph.flowchart.multi-document;whiteSpace=wrap;fontSize=16;fillColor=#dae8fc;strokeColor=#6c8ebf;movable=1;resizable=1;rotatable=1;deletable=1;editable=1;locked=0;connectable=1;" vertex="1" parent="1">
          <mxGeometry x="120" y="460" width="80" height="55" as="geometry" />
        </mxCell>
        <mxCell id="34r35kRBPOAVTFGhnLEs-18" value="测试用例&lt;div style=&quot;font-size: 16px;&quot;&gt;依赖关系&lt;/div&gt;" style="strokeWidth=2;html=1;shape=mxgraph.flowchart.multi-document;whiteSpace=wrap;fontSize=16;strokeColor=#6c8ebf;align=center;verticalAlign=middle;fontFamily=Helvetica;fillColor=#dae8fc;movable=1;resizable=1;rotatable=1;deletable=1;editable=1;locked=0;connectable=1;" vertex="1" parent="1">
          <mxGeometry x="210" y="460" width="80" height="55" as="geometry" />
        </mxCell>
        <mxCell id="34r35kRBPOAVTFGhnLEs-19" value="测试用例集" style="text;html=1;align=center;verticalAlign=middle;whiteSpace=wrap;rounded=0;fontSize=16;strokeWidth=2;movable=1;resizable=1;rotatable=1;deletable=1;editable=1;locked=0;connectable=1;" vertex="1" parent="1">
          <mxGeometry x="205" y="430" width="90" height="30" as="geometry" />
        </mxCell>
        <mxCell id="34r35kRBPOAVTFGhnLEs-20" value="" style="rounded=0;whiteSpace=wrap;html=1;strokeWidth=2;fillColor=#F4EDF7;strokeColor=#9673a6;movable=0;resizable=0;rotatable=0;deletable=0;editable=0;locked=1;connectable=0;" vertex="1" parent="1">
          <mxGeometry x="100" y="730" width="290" height="210" as="geometry" />
        </mxCell>
        <mxCell id="34r35kRBPOAVTFGhnLEs-32" value="代码验证" style="text;html=1;align=center;verticalAlign=middle;whiteSpace=wrap;rounded=0;fontSize=16;strokeWidth=2;fontStyle=1;movable=1;resizable=1;rotatable=1;deletable=1;editable=1;locked=0;connectable=1;" vertex="1" parent="1">
          <mxGeometry x="205" y="730" width="80" height="30" as="geometry" />
        </mxCell>
        <mxCell id="34r35kRBPOAVTFGhnLEs-34" value="测试用例覆盖SQL" style="strokeWidth=2;html=1;shape=mxgraph.flowchart.multi-document;whiteSpace=wrap;fontSize=16;strokeColor=#6c8ebf;align=center;verticalAlign=middle;fontFamily=Helvetica;fillColor=#dae8fc;movable=1;resizable=1;rotatable=1;deletable=1;editable=1;locked=0;connectable=1;" vertex="1" parent="1">
          <mxGeometry x="295" y="460" width="80" height="55" as="geometry" />
        </mxCell>
        <mxCell id="34r35kRBPOAVTFGhnLEs-35" value="已修复SQL&lt;span class=&quot;eusoft-eudic-chrome-extension-translate-content&quot;&gt;&lt;/span&gt;" style="rounded=1;whiteSpace=wrap;html=1;fillColor=#ECF3FE;strokeWidth=2;fontSize=16;strokeColor=#6c8ebf;align=center;verticalAlign=middle;fontFamily=Helvetica;movable=1;resizable=1;rotatable=1;deletable=1;editable=1;locked=0;connectable=1;" vertex="1" parent="1">
          <mxGeometry x="290" y="550" width="90" height="40" as="geometry" />
        </mxCell>
        <mxCell id="34r35kRBPOAVTFGhnLEs-36" value="&lt;span style=&quot;background-color: transparent; color: light-dark(rgb(0, 0, 0), rgb(255, 255, 255));&quot;&gt;报错信息&lt;/span&gt;" style="strokeWidth=2;html=1;shape=mxgraph.flowchart.multi-document;whiteSpace=wrap;strokeColor=#b85450;align=center;verticalAlign=middle;fontFamily=Helvetica;fontSize=16;fontColor=default;fillColor=#fbe1df;movable=1;resizable=1;rotatable=1;deletable=1;editable=1;locked=0;connectable=1;rounded=0;fontStyle=0;" vertex="1" parent="1">
          <mxGeometry x="520" y="559.5" width="70" height="50" as="geometry" />
        </mxCell>
        <mxCell id="34r35kRBPOAVTFGhnLEs-37" value="多路召回检索引擎" style="rounded=0;whiteSpace=wrap;html=1;fontStyle=0;fontSize=16;strokeWidth=2;strokeColor=#b85450;align=center;verticalAlign=middle;fontFamily=Helvetica;fillColor=#fbe1df;movable=1;resizable=1;rotatable=1;deletable=1;editable=1;locked=0;connectable=1;container=0;" vertex="1" parent="1">
          <mxGeometry x="620" y="564.5" width="200" height="40" as="geometry" />
        </mxCell>
        <mxCell id="34r35kRBPOAVTFGhnLEs-38" value="" style="edgeStyle=orthogonalEdgeStyle;rounded=0;orthogonalLoop=1;jettySize=auto;html=1;exitX=0.503;exitY=1;exitDx=0;exitDy=0;exitPerimeter=0;strokeWidth=2;movable=1;resizable=1;rotatable=1;deletable=1;editable=1;locked=0;connectable=1;" edge="1" parent="1" source="34r35kRBPOAVTFGhnLEs-39" target="34r35kRBPOAVTFGhnLEs-45">
          <mxGeometry relative="1" as="geometry" />
        </mxCell>
        <mxCell id="34r35kRBPOAVTFGhnLEs-39" value="过滤器" style="rounded=0;whiteSpace=wrap;html=1;fontSize=16;strokeWidth=2;strokeColor=#b85450;align=center;verticalAlign=middle;fontFamily=Helvetica;fillColor=#fbe1df;movable=1;resizable=1;rotatable=1;deletable=1;editable=1;locked=0;connectable=1;container=0;" vertex="1" parent="1">
          <mxGeometry x="499" y="630" width="320" height="40" as="geometry" />
        </mxCell>
        <mxCell id="34r35kRBPOAVTFGhnLEs-40" value="召回内容&lt;div&gt;重排序与格式化&lt;/div&gt;" style="rounded=0;whiteSpace=wrap;html=1;fontSize=16;strokeWidth=2;strokeColor=#b85450;align=center;verticalAlign=middle;fontFamily=Helvetica;fillColor=#fbe1df;movable=1;resizable=1;rotatable=1;deletable=1;editable=1;locked=0;connectable=1;container=0;" vertex="1" parent="1">
          <mxGeometry x="675" y="700" width="145" height="40" as="geometry" />
        </mxCell>
        <mxCell id="34r35kRBPOAVTFGhnLEs-41" value="SQL输入" style="rounded=1;whiteSpace=wrap;html=1;fontSize=16;strokeWidth=2;strokeColor=#b85450;align=center;verticalAlign=middle;fontFamily=Helvetica;fillColor=#fbe1df;movable=1;resizable=1;rotatable=1;deletable=1;editable=1;locked=0;connectable=1;container=0;" vertex="1" parent="1">
          <mxGeometry x="499" y="700" width="145" height="40" as="geometry" />
        </mxCell>
        <mxCell id="34r35kRBPOAVTFGhnLEs-42" style="edgeStyle=orthogonalEdgeStyle;rounded=0;orthogonalLoop=1;jettySize=auto;html=1;strokeWidth=2;movable=1;resizable=1;rotatable=1;deletable=1;editable=1;locked=0;connectable=1;" edge="1" parent="1" source="34r35kRBPOAVTFGhnLEs-43" target="34r35kRBPOAVTFGhnLEs-37">
          <mxGeometry relative="1" as="geometry">
            <Array as="points">
              <mxPoint x="720" y="530" />
              <mxPoint x="720" y="530" />
            </Array>
          </mxGeometry>
        </mxCell>
        <mxCell id="34r35kRBPOAVTFGhnLEs-43" value="" style="rounded=1;whiteSpace=wrap;html=1;fillColor=#fbe1df;strokeWidth=2;strokeColor=#b85450;movable=1;resizable=1;rotatable=1;deletable=1;editable=1;locked=0;connectable=1;container=0;" vertex="1" parent="1">
          <mxGeometry x="500" y="430" width="320" height="97.5" as="geometry" />
        </mxCell>
        <mxCell id="34r35kRBPOAVTFGhnLEs-44" value="" style="edgeStyle=orthogonalEdgeStyle;rounded=0;orthogonalLoop=1;jettySize=auto;html=1;strokeWidth=2;movable=1;resizable=1;rotatable=1;deletable=1;editable=1;locked=0;connectable=1;" edge="1" parent="1" source="34r35kRBPOAVTFGhnLEs-45" target="34r35kRBPOAVTFGhnLEs-48">
          <mxGeometry relative="1" as="geometry" />
        </mxCell>
        <mxCell id="34r35kRBPOAVTFGhnLEs-45" value="提示词构建器" style="rounded=0;whiteSpace=wrap;html=1;fontSize=16;strokeWidth=2;strokeColor=#b85450;align=center;verticalAlign=middle;fontFamily=Helvetica;fillColor=#fbe1df;movable=1;resizable=1;rotatable=1;deletable=1;editable=1;locked=0;connectable=1;container=0;" vertex="1" parent="1">
          <mxGeometry x="500" y="760" width="320" height="40" as="geometry" />
        </mxCell>
        <mxCell id="34r35kRBPOAVTFGhnLEs-46" style="edgeStyle=orthogonalEdgeStyle;rounded=0;orthogonalLoop=1;jettySize=auto;html=1;entryX=0.773;entryY=0;entryDx=0;entryDy=0;entryPerimeter=0;strokeWidth=2;movable=1;resizable=1;rotatable=1;deletable=1;editable=1;locked=0;connectable=1;" edge="1" parent="1" source="34r35kRBPOAVTFGhnLEs-40" target="34r35kRBPOAVTFGhnLEs-45">
          <mxGeometry relative="1" as="geometry" />
        </mxCell>
        <mxCell id="34r35kRBPOAVTFGhnLEs-47" value="" style="edgeStyle=orthogonalEdgeStyle;rounded=0;orthogonalLoop=1;jettySize=auto;html=1;strokeWidth=2;movable=1;resizable=1;rotatable=1;deletable=1;editable=1;locked=0;connectable=1;" edge="1" parent="1" source="34r35kRBPOAVTFGhnLEs-48" target="34r35kRBPOAVTFGhnLEs-49">
          <mxGeometry relative="1" as="geometry" />
        </mxCell>
        <mxCell id="34r35kRBPOAVTFGhnLEs-48" value="LLM" style="rounded=0;whiteSpace=wrap;html=1;fontSize=16;strokeWidth=2;strokeColor=#b85450;align=center;verticalAlign=middle;fontFamily=Helvetica;fillColor=#fbe1df;movable=1;resizable=1;rotatable=1;deletable=1;editable=1;locked=0;connectable=1;container=0;" vertex="1" parent="1">
          <mxGeometry x="500" y="830" width="320" height="40" as="geometry" />
        </mxCell>
        <mxCell id="34r35kRBPOAVTFGhnLEs-49" value="目标数据库SQL" style="rounded=1;whiteSpace=wrap;html=1;fontSize=16;strokeWidth=2;strokeColor=#b85450;align=center;verticalAlign=middle;fontFamily=Helvetica;fillColor=#fbe1df;movable=1;resizable=1;rotatable=1;deletable=1;editable=1;locked=0;connectable=1;container=0;" vertex="1" parent="1">
          <mxGeometry x="500" y="890" width="320" height="40" as="geometry" />
        </mxCell>
        <mxCell id="34r35kRBPOAVTFGhnLEs-50" value="代码生成" style="text;html=1;align=center;verticalAlign=middle;whiteSpace=wrap;rounded=0;fontSize=16;strokeWidth=2;fontStyle=1;movable=1;resizable=1;rotatable=1;deletable=1;editable=1;locked=0;connectable=1;container=0;" vertex="1" parent="1">
          <mxGeometry x="615" y="390" width="90" height="30" as="geometry" />
        </mxCell>
        <mxCell id="34r35kRBPOAVTFGhnLEs-51" value="&lt;span style=&quot;font-size: 16px;&quot;&gt;数据库&lt;/span&gt;&lt;div style=&quot;font-size: 16px;&quot;&gt;文档&lt;/div&gt;" style="strokeWidth=2;html=1;shape=mxgraph.flowchart.multi-document;whiteSpace=wrap;fillColor=#f8cecc;strokeColor=#b85450;fontSize=16;movable=1;resizable=1;rotatable=1;deletable=1;editable=1;locked=0;connectable=1;container=0;" vertex="1" parent="1">
          <mxGeometry x="730" y="470" width="70" height="50" as="geometry" />
        </mxCell>
        <mxCell id="34r35kRBPOAVTFGhnLEs-52" value="&lt;div style=&quot;font-size: 16px;&quot;&gt;&lt;span style=&quot;font-size: 16px;&quot;&gt;web&lt;/span&gt;&lt;/div&gt;" style="strokeWidth=2;html=1;shape=mxgraph.flowchart.multi-document;whiteSpace=wrap;strokeColor=#b85450;align=center;verticalAlign=middle;fontFamily=Helvetica;fontSize=16;fillColor=#f8cecc;movable=1;resizable=1;rotatable=1;deletable=1;editable=1;locked=0;connectable=1;container=0;" vertex="1" parent="1">
          <mxGeometry x="594.5" y="470" width="58" height="50" as="geometry" />
        </mxCell>
        <mxCell id="34r35kRBPOAVTFGhnLEs-53" value="知识库" style="text;html=1;align=center;verticalAlign=middle;whiteSpace=wrap;rounded=0;fontSize=16;fontStyle=0;strokeWidth=2;movable=1;resizable=1;rotatable=1;deletable=1;editable=1;locked=0;connectable=1;container=0;" vertex="1" parent="1">
          <mxGeometry x="630" y="430" width="60" height="30" as="geometry" />
        </mxCell>
        <mxCell id="34r35kRBPOAVTFGhnLEs-54" value="&lt;span style=&quot;font-size: 16px;&quot;&gt;SQL&lt;/span&gt;&lt;div style=&quot;font-size: 16px;&quot;&gt;&lt;span style=&quot;font-size: 16px;&quot;&gt;转换例子&lt;/span&gt;&lt;/div&gt;" style="strokeWidth=2;html=1;shape=mxgraph.flowchart.multi-document;whiteSpace=wrap;strokeColor=#b85450;align=center;verticalAlign=middle;fontFamily=Helvetica;fontSize=16;fillColor=#f8cecc;movable=1;resizable=1;rotatable=1;deletable=1;editable=1;locked=0;connectable=1;container=0;" vertex="1" parent="1">
          <mxGeometry x="520" y="470" width="70" height="50" as="geometry" />
        </mxCell>
        <mxCell id="34r35kRBPOAVTFGhnLEs-55" style="edgeStyle=orthogonalEdgeStyle;rounded=0;orthogonalLoop=1;jettySize=auto;html=1;entryX=0;entryY=0.5;entryDx=0;entryDy=0;entryPerimeter=0;dashed=1;strokeWidth=2;movable=1;resizable=1;rotatable=1;deletable=1;editable=1;locked=0;connectable=1;" edge="1" parent="1" source="34r35kRBPOAVTFGhnLEs-35" target="34r35kRBPOAVTFGhnLEs-54">
          <mxGeometry relative="1" as="geometry">
            <Array as="points">
              <mxPoint x="490" y="570" />
              <mxPoint x="490" y="495" />
            </Array>
          </mxGeometry>
        </mxCell>
        <mxCell id="34r35kRBPOAVTFGhnLEs-56" style="edgeStyle=orthogonalEdgeStyle;rounded=0;orthogonalLoop=1;jettySize=auto;html=1;entryX=0.691;entryY=0.05;entryDx=0;entryDy=0;entryPerimeter=0;strokeWidth=2;movable=1;resizable=1;rotatable=1;deletable=1;editable=1;locked=0;connectable=1;" edge="1" parent="1" source="34r35kRBPOAVTFGhnLEs-37" target="34r35kRBPOAVTFGhnLEs-39">
          <mxGeometry relative="1" as="geometry" />
        </mxCell>
        <mxCell id="34r35kRBPOAVTFGhnLEs-57" style="edgeStyle=orthogonalEdgeStyle;rounded=0;orthogonalLoop=1;jettySize=auto;html=1;entryX=0.225;entryY=1;entryDx=0;entryDy=0;entryPerimeter=0;strokeWidth=2;movable=1;resizable=1;rotatable=1;deletable=1;editable=1;locked=0;connectable=1;" edge="1" parent="1" source="34r35kRBPOAVTFGhnLEs-41" target="34r35kRBPOAVTFGhnLEs-39">
          <mxGeometry relative="1" as="geometry" />
        </mxCell>
        <mxCell id="34r35kRBPOAVTFGhnLEs-58" style="edgeStyle=orthogonalEdgeStyle;rounded=0;orthogonalLoop=1;jettySize=auto;html=1;dashed=1;strokeWidth=2;movable=1;resizable=1;rotatable=1;deletable=1;editable=1;locked=0;connectable=1;" edge="1" parent="1" source="34r35kRBPOAVTFGhnLEs-12">
          <mxGeometry relative="1" as="geometry">
            <mxPoint x="520" y="601" as="targetPoint" />
            <Array as="points">
              <mxPoint x="180" y="600" />
              <mxPoint x="365" y="600" />
              <mxPoint x="365" y="601" />
            </Array>
          </mxGeometry>
        </mxCell>
        <mxCell id="34r35kRBPOAVTFGhnLEs-59" style="edgeStyle=orthogonalEdgeStyle;rounded=0;orthogonalLoop=1;jettySize=auto;html=1;entryX=0.175;entryY=0.025;entryDx=0;entryDy=0;entryPerimeter=0;strokeWidth=2;movable=1;resizable=1;rotatable=1;deletable=1;editable=1;locked=0;connectable=1;" edge="1" parent="1" source="34r35kRBPOAVTFGhnLEs-36" target="34r35kRBPOAVTFGhnLEs-39">
          <mxGeometry relative="1" as="geometry" />
        </mxCell>
        <mxCell id="34r35kRBPOAVTFGhnLEs-60" style="edgeStyle=orthogonalEdgeStyle;rounded=0;orthogonalLoop=1;jettySize=auto;html=1;entryX=0.448;entryY=0.075;entryDx=0;entryDy=0;entryPerimeter=0;strokeWidth=2;movable=1;resizable=1;rotatable=1;deletable=1;editable=1;locked=0;connectable=1;" edge="1" parent="1" source="34r35kRBPOAVTFGhnLEs-39" target="34r35kRBPOAVTFGhnLEs-40">
          <mxGeometry relative="1" as="geometry">
            <Array as="points">
              <mxPoint x="740" y="670" />
              <mxPoint x="740" y="670" />
            </Array>
          </mxGeometry>
        </mxCell>
        <mxCell id="34r35kRBPOAVTFGhnLEs-62" value="" style="sketch=0;aspect=fixed;pointerEvents=1;shadow=0;dashed=0;html=1;strokeColor=#d79b00;labelPosition=center;verticalLabelPosition=bottom;verticalAlign=top;align=center;fillColor=#B85450;shape=mxgraph.mscae.enterprise.filter;movable=1;resizable=1;rotatable=1;deletable=1;editable=1;locked=0;connectable=1;" vertex="1" parent="1">
          <mxGeometry x="604.89" y="638.7" width="25.11" height="22.6" as="geometry" />
        </mxCell>
        <mxCell id="34r35kRBPOAVTFGhnLEs-63" value="" style="sketch=0;outlineConnect=0;fillColor=#6C8EBF;strokeColor=#6c8ebf;dashed=0;verticalLabelPosition=bottom;verticalAlign=top;align=center;html=1;fontSize=12;fontStyle=0;aspect=fixed;pointerEvents=1;shape=mxgraph.aws4.textract_analyze_lending;movable=1;resizable=1;rotatable=1;deletable=1;editable=1;locked=0;connectable=1;" vertex="1" parent="1">
          <mxGeometry x="110" y="624" width="28" height="28" as="geometry" />
        </mxCell>
        <mxCell id="34r35kRBPOAVTFGhnLEs-64" value="" style="outlineConnect=0;fillColor=#B85450;strokeColor=none;dashed=0;verticalLabelPosition=bottom;verticalAlign=top;align=center;html=1;fontSize=12;fontStyle=0;aspect=fixed;pointerEvents=1;shape=mxgraph.aws4.sagemaker_model;fillStyle=auto;movable=1;resizable=1;rotatable=1;deletable=1;editable=1;locked=0;connectable=1;" vertex="1" parent="1">
          <mxGeometry x="610" y="833" width="27" height="27" as="geometry" />
        </mxCell>
        <mxCell id="34r35kRBPOAVTFGhnLEs-65" value="" style="sketch=0;outlineConnect=0;fillColor=#B85450;strokeColor=#B85450;dashed=0;verticalLabelPosition=bottom;verticalAlign=top;align=center;html=1;fontSize=12;fontStyle=0;aspect=fixed;pointerEvents=1;shape=mxgraph.aws4.textract_analyze_lending;movable=1;resizable=1;rotatable=1;deletable=1;editable=1;locked=0;connectable=1;" vertex="1" parent="1">
          <mxGeometry x="620" y="570.5" width="28" height="28" as="geometry" />
        </mxCell>
        <mxCell id="34r35kRBPOAVTFGhnLEs-66" value="&lt;div style=&quot;font-size: 16px;&quot;&gt;DWF&lt;/div&gt;&lt;div style=&quot;font-size: 16px;&quot;&gt;代码库&lt;/div&gt;" style="strokeWidth=2;html=1;shape=mxgraph.flowchart.multi-document;whiteSpace=wrap;strokeColor=#b85450;align=center;verticalAlign=middle;fontFamily=Helvetica;fontSize=16;fillColor=#f8cecc;movable=1;resizable=1;rotatable=1;deletable=1;editable=1;locked=0;connectable=1;container=0;" vertex="1" parent="1">
          <mxGeometry x="660" y="470" width="58" height="50" as="geometry" />
        </mxCell>
        <mxCell id="34r35kRBPOAVTFGhnLEs-67" value="" style="shape=image;editableCssRules=.*;verticalLabelPosition=bottom;labelBackgroundColor=default;verticalAlign=top;aspect=fixed;imageAspect=0;image=data:image/svg+xml,PHN2ZyB4bWxucz0iaHR0cDovL3d3dy53My5vcmcvMjAwMC9zdmciIHZpZXdCb3g9Ii0wLjUgLTAuNSAyNS44NjcgMjgiIGhlaWdodD0iMjgiIHdpZHRoPSIyNS44NjciPiYjeGE7CSAgPHN0eWxlIHR5cGU9InRleHQvY3NzIj4uc3QwIHsgc3RvcC1jb2xvcjogcmdiKDE4NCwgODQsIDgwKTsgfSAuc3QxIHsgc3RvcC1jb2xvcjogcmdiKDE4NCwgODQsIDgwKTsgfSA8L3N0eWxlPiYjeGE7CTxkZWZzPiYjeGE7CQk8bGluZWFyR3JhZGllbnQgZ3JhZGllbnRVbml0cz0idXNlclNwYWNlT25Vc2UiIHkyPSIyMy42MTMiIHgyPSIyMy4yMjciIHkxPSIzLjQ3NCIgeDE9IjEuODQ2IiBpZD0iQSI+JiN4YTsJCQk8c3RvcCBjbGFzcz0ic3QwIi8+JiN4YTsJCQk8c3RvcCBjbGFzcz0ic3QxIiBvZmZzZXQ9IjEiLz4mI3hhOwkJPC9saW5lYXJHcmFkaWVudD4mI3hhOwk8L2RlZnM+JiN4YTsJPHBhdGggZmlsbD0idXJsKCNBKSIgZD0iTTEzLjM5IDI3LjVoLTEuOTE1Yy0uNjU2IDAtMS4yNTctLjIxOS0xLjgwMy0uNjU2YTIuNDYgMi40NiAwIDAgMS0uOTMxLTEuNTg1bC0uMzgzLTEuODA0LTIuMzUtMS40MjMtMS42NDEuNzFhMy42MSAzLjYxIDAgMCAxLTEuMDQuMTY1Yy0uNTA5IDAtMS4wMDMtLjEyOC0xLjQ3Ny0uMzgzLS40NTItLjI3MS0uODEzLS42NzEtMS4wMzgtMS4xNDhsLTEuMDM5LTIuMDIzYy0uMTY5LS4zNzktLjI2Mi0uNzg5LS4yNzMtMS4yMDRhMi43NSAyLjc1IDAgMCAxIDEuMTQ4LTIuMjk2bDEuMjU4LS45Mjl2LTIuODQ1bC0xLjMxMi0uOTgzQy0uMTM2IDEwLjU0Ni0uNSA5Ljc5OS0uNSA4Ljg1MmMwLS4zNjYuMDkxLS43NjcuMjczLTEuMjA0bDEuMDQtMi4wMjNjLjI1NS0uNTExLjYtLjg5MyAxLjAzOC0xLjE0OC40NzQtLjI1NS45NjgtLjM4MyAxLjQ3Ny0uMzgzLjQwMiAwIC43NDcuMDc0IDEuMDQuMjE5bDEuNjQxLjY1NiAyLjM1LTEuNDIzLjM4My0xLjgwMkEyLjY4IDIuNjggMCAwIDEgOS43MjcuMTU2YTIuNjEgMi42MSAwIDAgMSAxLjc1LS42NTZoMS45MTNhMi42MSAyLjYxIDAgMCAxIDEuNzUuNjU2Yy41MTEuNDAzLjg0LjkyOS45ODUgMS41ODZsLjMyNyAxLjgwNiAyLjQwNiAxLjQyMSAxLjY0Mi0uNjU2Yy4yOTEtLjE0NS42MzctLjIxOSAxLjA0LS4yMTlhMi43NyAyLjc3IDAgMCAxIDEuNDIxLjM4M2MuNDczLjI1NS44NC42MzcgMS4wOTQgMS4xNDhsLjk4NSAyLjAyM2MuMjE3LjM2Ni4zMjcuNzg0LjMyNyAxLjI1OCAwIC45MS0uMzgzIDEuNjQyLTEuMTQ4IDIuMTg4bC0xLjMxMi45ODV2Mi44NDRsMS4zMTMuOTI4Yy43NjUuNTg1IDEuMTQ4IDEuMzMyIDEuMTQ4IDIuMjQzIDAgLjQzOC0uMTEuODU4LS4zMjkgMS4yNThsLS45ODMgMi4wMjNjLS4yNTYuNTExLS42MTkuODkyLTEuMDk0IDEuMTQ4LS40MzcuMjU2LS45MS4zODMtMS40MjMuMzgzLS4zNjQgMC0uNzEtLjA1NC0xLjAzOC0uMTY1bC0xLjY0Mi0uNzEtMi40MDYgMS40MjMtLjMyNyAxLjgwMmMtLjE0Ny42NTgtLjQ3NCAxLjE4Ni0uOTg1IDEuNTg3YTIuNjEgMi42MSAwIDAgMS0xLjc1LjY1NnptLTcuMzgzLTguMjU4Yy40NzQgMCAuOTQ5LjE0NyAxLjQyMy40MzhsMi40MDYgMS40MjNjLjczLjQzOCAxLjE0OCAxLjA0IDEuMjU4IDEuODA0bC4zODIgMS44MDRoMS45MTVsLjMyOS0xLjgwNGMuMTgyLS44MDIuNjItMS40MDQgMS4zMTMtMS44MDRsMi4zNTItMS40MjNhMy4wNiAzLjA2IDAgMCAxIDEuNTI5LS40MzdjLjE4NCAwIC4zNDYuMDE3LjQ5NC4wNTRhNC4xNyA0LjE3IDAgMCAxIC40OTIuMTY1bDEuNjQyLjY1Ni45ODMtMi4wMjMtMS4yNTgtLjkyOWMtLjc2NS0uNTg0LTEuMTQ4LTEuMzMtMS4xNDgtMi4yNDJ2LTIuODQ1YzAtLjkxLjM4My0xLjY1NyAxLjE0OC0yLjI0bDEuMjU4LS45MzEtLjk4NS0yLjAyMy0xLjY0LjcxYy0uMzM1LjExMS0uNjg2LjE2Ni0xLjA0LjE2NS0uNTgzIDAtMS4wNzUtLjEyOC0xLjQ3Ny0uMzgzbC0yLjM1LTEuNDc3YTIuNjggMi42OCAwIDAgMS0xLjMxMi0xLjgwNEwxMy4zOSAyLjI5aC0xLjkxNWwtLjM4MiAxLjgwNGMtLjExLjc2Ni0uNTI4IDEuMzY3LTEuMjU4IDEuODA0TDcuNDgzIDcuMzc1Yy0uNDAxLjI1NS0uODkzLjM4My0xLjQ3NS4zODMtLjMyOSAwLS42OTMtLjA1Ni0xLjA5NC0uMTY1bC0xLjY0MS0uNzEtLjk4NSAyLjAyMyAxLjMxMy45MjljLjc2Ny41ODUgMS4xNSAxLjMzIDEuMTUgMi4yNDR2Mi44NDRjMCAuOTEtLjM4MyAxLjY1Ny0xLjE0OCAyLjI0bC0xLjMxMi45MzEgMS4wMzggMi4wMjMgMS42NDEtLjY1NmMuMjktLjE0NS42MzctLjIxOSAxLjA0LS4yMTl6bTYuNC0uMTY1YTUuNTcgNS41NyAwIDAgMS0yLjE4Ny0uNDM3Yy0uNjUzLS4yODktMS4yNDYtLjY5Ny0xLjc1LTEuMjAyYTUuNzcgNS43NyAwIDAgMS0xLjIwNC0xLjc1IDUuNTggNS41OCAwIDAgMS0uNDM3LTIuMTg3IDUuMjEgNS4yMSAwIDAgMSAuNDM4LTIuMTMzYy4yOTItLjY5My42OTMtMS4yOTUgMS4yMDQtMS44MDRzMS4wOTQtLjkxIDEuNzUtMS4yMDRhNS42IDUuNiAwIDAgMSAyLjE4OC0uNDM3Yy43NjUgMCAxLjQ5NS4xNDcgMi4xODguNDM4czEuMjk1LjY5MyAxLjgwNCAxLjIwNC45MSAxLjExMSAxLjIwNCAxLjgwNGMuMjkxLjY1Ni40MzggMS4zNjguNDM4IDIuMTMzYTUuNiA1LjYgMCAwIDEtLjQzNyAyLjE4OGMtLjI5LjY1My0uNjk4IDEuMjQ2LTEuMjA0IDEuNzUtLjUxMS41MTEtMS4xMTEuOTEtMS44MDQgMS4yMDRzLTEuNDIzLjQzNi0yLjE4Ny40MzZ6bTAtOC4zNjVjLS43NjcgMC0xLjQyMy4yNzEtMS45NjkuODE5LS4yNjQuMjU1LS40NzMuNTYxLS42MTQuODk5cy0uMjExLjcwMy0uMjA2IDEuMDY5YzAgLjc2Ny4yNzMgMS40MjMuODIxIDEuOTY5czEuMjAyLjgyMSAxLjk2OS44MjFjLjgwMiAwIDEuNDc3LS4yNzMgMi4wMjMtLjgyMXMuODIxLTEuMjA0LjgyMS0xLjk2OS0uMjczLTEuNDIzLS44MjEtMS45NjlhMi43NSAyLjc1IDAgMCAwLS45MjctLjYyYy0uMzQ4LS4xNDEtLjcyMS0uMjA4LTEuMDk2LS4xOTl6Ii8+JiN4YTs8L3N2Zz4=;movable=1;resizable=1;rotatable=1;deletable=1;editable=1;locked=0;connectable=1;" vertex="1" parent="1">
          <mxGeometry x="584" y="766" width="26" height="28" as="geometry" />
        </mxCell>
        <mxCell id="34r35kRBPOAVTFGhnLEs-72" value="DML" style="text;html=1;align=center;verticalAlign=middle;whiteSpace=wrap;rounded=0;fontStyle=1;fontSize=18;" vertex="1" parent="1">
          <mxGeometry x="220" y="661.3" width="60" height="30" as="geometry" />
        </mxCell>
        <mxCell id="34r35kRBPOAVTFGhnLEs-76" value="" style="endArrow=none;dashed=1;html=1;dashPattern=1 3;strokeWidth=2;rounded=0;entryX=0.566;entryY=1.032;entryDx=0;entryDy=0;entryPerimeter=0;" edge="1" parent="1" target="34r35kRBPOAVTFGhnLEs-32">
          <mxGeometry width="50" height="50" relative="1" as="geometry">
            <mxPoint x="250" y="940" as="sourcePoint" />
            <mxPoint x="250" y="780" as="targetPoint" />
          </mxGeometry>
        </mxCell>
        <mxCell id="34r35kRBPOAVTFGhnLEs-78" value="DDL" style="text;html=1;align=center;verticalAlign=middle;whiteSpace=wrap;rounded=0;fontStyle=1;fontSize=18;" vertex="1" parent="1">
          <mxGeometry x="295" y="910" width="60" height="30" as="geometry" />
        </mxCell>
        <mxCell id="34r35kRBPOAVTFGhnLEs-80" value="DML" style="text;html=1;align=center;verticalAlign=middle;whiteSpace=wrap;rounded=0;fontStyle=1;fontSize=18;" vertex="1" parent="1">
          <mxGeometry x="150" y="910" width="60" height="30" as="geometry" />
        </mxCell>
        <mxCell id="34r35kRBPOAVTFGhnLEs-86" value="" style="group" vertex="1" connectable="0" parent="1">
          <mxGeometry x="120" y="837" width="110" height="40" as="geometry" />
        </mxCell>
        <mxCell id="34r35kRBPOAVTFGhnLEs-83" value="" style="rounded=1;whiteSpace=wrap;html=1;fontSize=16;strokeWidth=2;strokeColor=#9673a6;align=center;verticalAlign=middle;fontFamily=Helvetica;fillColor=#EBE0F1;movable=1;resizable=1;rotatable=1;deletable=1;editable=1;locked=0;connectable=1;" vertex="1" parent="34r35kRBPOAVTFGhnLEs-86">
          <mxGeometry width="110" height="40" as="geometry" />
        </mxCell>
        <mxCell id="34r35kRBPOAVTFGhnLEs-84" value="" style="shape=image;editableCssRules=.*;verticalLabelPosition=bottom;labelBackgroundColor=default;verticalAlign=top;aspect=fixed;imageAspect=0;image=data:image/svg+xml,PHN2ZyB4bWxucz0iaHR0cDovL3d3dy53My5vcmcvMjAwMC9zdmciIHZpZXdCb3g9Ii0wLjUgLTAuNSAyOCAyNy44OSIgaGVpZ2h0PSIyNy44OSIgd2lkdGg9IjI4Ij4mI3hhOwkgIDxzdHlsZSB0eXBlPSJ0ZXh0L2NzcyI+LnN0MCB7IHN0b3AtY29sb3I6IHJnYigxNTAsIDExNSwgMTY2KTsgfSAuc3QxIHsgc3RvcC1jb2xvcjogcmdiKDE1MCwgMTE1LCAxNjYpOyB9IDwvc3R5bGU+JiN4YTsJPGRlZnM+JiN4YTsJCTxsaW5lYXJHcmFkaWVudCBncmFkaWVudFVuaXRzPSJ1c2VyU3BhY2VPblVzZSIgeTI9IjI0Ljk1NCIgeDI9IjI1LjIxMiIgeTE9IjMuNjI1IiB4MT0iMy4zNzkiIGlkPSJBIj4mI3hhOwkJCTxzdG9wIGNsYXNzPSJzdDAiLz4mI3hhOwkJCTxzdG9wIGNsYXNzPSJzdDEiIG9mZnNldD0iMSIvPiYjeGE7CQk8L2xpbmVhckdyYWRpZW50PiYjeGE7CTwvZGVmcz4mI3hhOwk8cGF0aCBmaWxsPSJ1cmwoI0EpIiBkPSJNLS4wNjIgMjUuMDMzYy0uMjkxLjI5My0uNDM4LjYwMy0uNDM4LjkzMS4wMDIuMTg2LjA0Mi4zNjkuMTE3LjUzOXMuMTg1LjMyMi4zMjEuNDQ4Yy4xMjYuMTM3LjI3OS4yNDYuNDQ4LjMyMXMuMzUzLjExNS41MzkuMTE3Yy4zMjggMCAuNjM4LS4xNDcuOTMxLS40MzhsMy44OTEtMy44OTFjMS4xMzMuOTg3IDIuNDExIDEuNDYgMy44MzUgMS40MjUgMS40MjYtLjA3NCAyLjY2Ny0uNjQgMy43MjYtMS43MDFsMS4yNjEtMS4yNTljLjI5My0uMjkzLjQzOC0uNjAzLjQzOC0uOTMxIDAtLjM2Ni0uMTQ2LS42OTQtLjQzOC0uOTg3bC03LjEyNC03LjEyMmExLjM2IDEuMzYgMCAwIDAtLjk4NS0uNDM4Yy0uMzY1IDAtLjY5NC4xNDYtLjk4Ny40MzhsLTEuMjU5IDEuMjU5Yy0xLjA1OSAxLjA2MS0xLjYwOCAyLjI4NS0xLjY0NSAzLjY3Mi0uMDcyIDEuMzUyLjM0NyAyLjU3NiAxLjI2MSAzLjY3MnptMTEuMjktNC4zMjljLS41ODYuNTQ5LTEuMjQzLjgyMi0xLjk3My44MjJzLTEuMzg5LS4yNzMtMS45NzMtLjgyMmwtMS4wOTYtMS4wOTZjLS41NDktLjU4NC0uODIyLTEuMjQxLS44MjItMS45NzNzLjI3NC0xLjM4Ny44MjItMS45NzNsLjI3Mi0uMjc0TDExLjUgMjAuNDNsLS4yNzQuMjczem0yLjYzLTQuODc2Yy4xMjYuMTM2LjI3OC4yNDUuNDQ3LjMyMWExLjM2IDEuMzYgMCAwIDAgLjUzOC4xMTdjLjMzIDAgLjY0LS4xNDUuOTMzLS40MzhsMi41MTgtMi41MjEgMS4wOTYgMS4wOTZjLjEyNi4xMzYuMjc5LjI0Ni40NDguMzIxcy4zNTMuMTE1LjUzOS4xMTdhMS4yNSAxLjI1IDAgMCAwIC45ODYtLjQzOGwxLjI2MS0xLjIwNWMxLjA1OS0xLjA1OSAxLjYyNS0yLjI2NSAxLjY5OS0zLjYxN2E1LjY3IDUuNjcgMCAwIDAtMS4xNTItMy43OGwzLjg5MS0zLjg5MUExLjM2IDEuMzYgMCAwIDAgMjcuNS45MjRjMC0uMzY1LS4xNDUtLjY5NC0uNDM4LS45ODdTMjYuNDU4LS41IDI2LjEzMS0uNWMtLjM2NiAwLS42OTQuMTQ3LS45ODcuNDM4bC0zLjg4OSAzLjg5M2MtMS4wNzEtLjg5NC0yLjQ0My0xLjM0Ni0zLjgzNi0xLjI2Mi0xLjQyNi4wNzQtMi42NjUuNjQtMy43MjYgMS43MDFsLTEuMjYxIDEuMjU5Yy0uMTI4LjEzLS4yMjguMjg0LS4yOTQuNDU0cy0uMDk3LjM1MS0uMDkuNTMzYy0uMDAzLjE3My4wMy4zNDUuMDk3LjUwNXMuMTY1LjMwNC4yODkuNDI1bDEuMTQ5IDEuMTUyLTIuNTIgMi40NjVjLS4yOTMuMjkzLS40MzguNjIxLS40MzguOTg3YTEuMzYgMS4zNiAwIDAgMCAuMTE3LjUzOGMuMDc1LjE2OS4xODUuMzIyLjMyMS40NDcuMTI2LjEzNi4yNzkuMjQ2LjQ0OC4zMjFhMS4zNiAxLjM2IDAgMCAwIC41MzkuMTE3Yy4xODUtLjAwMi4zNjgtLjA0Mi41MzgtLjExN3MuMzIyLS4xODUuNDQ3LS4zMjFsMi40NjUtMi41MjEuODc3Ljg3Ny0yLjUxOCAyLjQ2NWMtLjI5My4yOTMtLjQzOC42MjEtLjQzOC45ODdhMS4zNiAxLjM2IDAgMCAwIC4xMTcuNTM4Yy4wNzUuMTY5LjE4NC4zMjIuMzIxLjQ0N3ptMS41MzQtOS4zMTZsLjI3NC0uMzI4YTIuNjkgMi42OSAwIDAgMSAxLjk3My0uODIyYy43MzEgMCAxLjM2OS4yNzQgMS45MTguODIybDEuMDk2IDEuMTVjLjU4NC41NDkuODc3IDEuMjA2Ljg3NyAxLjk3MyAwIC43MzEtLjI5MyAxLjM3MS0uODc3IDEuOTE4bC0uMjczLjI3NC00Ljk4Ny00Ljk4NXoiLz4mI3hhOzwvc3ZnPg==;movable=1;resizable=1;rotatable=1;deletable=1;editable=1;locked=0;connectable=1;" vertex="1" parent="34r35kRBPOAVTFGhnLEs-86">
          <mxGeometry x="2" y="6" width="28" height="28" as="geometry" />
        </mxCell>
        <mxCell id="34r35kRBPOAVTFGhnLEs-85" value="&lt;span style=&quot;font-size: 16px;&quot;&gt;适配器层&lt;/span&gt;" style="text;html=1;align=center;verticalAlign=middle;whiteSpace=wrap;rounded=0;" vertex="1" parent="34r35kRBPOAVTFGhnLEs-86">
          <mxGeometry x="30" y="6" width="80" height="30" as="geometry" />
        </mxCell>
        <mxCell id="34r35kRBPOAVTFGhnLEs-87" value="" style="group;rounded=1;" vertex="1" connectable="0" parent="1">
          <mxGeometry x="120" y="777" width="110" height="40" as="geometry" />
        </mxCell>
        <mxCell id="34r35kRBPOAVTFGhnLEs-88" value="" style="rounded=0;whiteSpace=wrap;html=1;fontSize=16;strokeWidth=2;strokeColor=#9673a6;align=center;verticalAlign=middle;fontFamily=Helvetica;fillColor=#EBE0F1;movable=1;resizable=1;rotatable=1;deletable=1;editable=1;locked=0;connectable=1;" vertex="1" parent="34r35kRBPOAVTFGhnLEs-87">
          <mxGeometry width="110" height="40" as="geometry" />
        </mxCell>
        <mxCell id="34r35kRBPOAVTFGhnLEs-90" value="&lt;span style=&quot;font-size: 16px;&quot;&gt;Jenkins&lt;/span&gt;" style="text;html=1;align=center;verticalAlign=middle;whiteSpace=wrap;rounded=0;" vertex="1" parent="34r35kRBPOAVTFGhnLEs-87">
          <mxGeometry x="40" y="5" width="70" height="30" as="geometry" />
        </mxCell>
        <UserObject label="" tags="Background" id="34r35kRBPOAVTFGhnLEs-81">
          <mxCell style="vsdxID=1;fillColor=none;gradientColor=none;image;aspect=fixed;image=data:image/png,iVBORw0KGgoAAAANSUhEUgAAAJYAAACWCAYAAAA8AXHiAAAAAXNSR0IArs4c6QAAE5FJREFUeF7tXYuVLTkNnI0EiGQhEiASIBIgEiAS2Ehga97UrlZIlmTL3e47c8+ZM+/Ndfsjl6WSLLu/e/v6ZCXw67e3N/x8//EA/4//4t/8/R+jQv4Nv/Hzw8fvf2Ybf1q5757W4Yv6C6D8/qOt3769veFn14eg+9vb29u/fmzrJcD2Bayf4UIw/UFooF1gGtVLrQaAPRZonx1YBNOf70BQsk0ADdrsL8nyRxT7jMB6ApgscABg0GJ/f4K5/EzA+tMHV+rkS9JseZpCkvyuttHuH08G2GcAFgDVZepolla4j/QuVxyDo03kqwKr29zRY8PvHR/0FyCDJ1rVakcC7BWB1amhoOnAaazY1A6AMRYGcCFeBg81+wH/+l228O5yrwQsTMZfE6ECgIQBTU++mCRwmCsBZfWlGgJBfwGuu/v99grAgvABqJEJobmg9kF5SxucSoorphJjQGhil9lOKbsnAwvChtnzzIUGkxTIPxQQj+QpzgxWFtJtsa8nAisi5iOQWPwLPOq2CUgtf7sQFhTGMzLrt43tacAaEfORCbBW+almr4K1aJGhrlvA9RRgjdR/xCnw7L/VbIF/gJy/yifyhC8H1xOANRJaJDAQevApfl5BS3mLAQsIY/VMYySr1kV2MrBGWioTswEHgffHT+aZVuHeUNkx4DoVWFrTVDWODid8BlBRRiNwXeb9nggsrWkkqDLBPw3KS03ADVrKC6x6ZvESOnAasDxQZcm2JuoA4ktkZE4A1nJaqot0otlvj5wELM/8VTSODHx+ZlAREN5CxffQXL+ZRk7w4CnA8kCFkEB2a0LW8QWqnyd+5FVnLUEZf6cAC3Em7SZXwUFtVdFwZYE99AFvbxTD2SKvE4DVsc3COj6T91fBeBRgbs9GvRtYFsGsgoMmcCtnqMzioWVHZL4q83CIdwNLq+gqOL54VTjFvygwIvMVPhu2ejew/qt6qHmVPjgqE9gAKvKybSQ0lOAzClBOkJ9H5quLejjyO4HlbbkQTJWDBnCbb8+aPAhjngyj7Nmqw+QO+U5g6WQ7aJ1KjjcH1c4PAoDI1X8Qln7qSrRfOOpzmyzvAlaU5jEaPM/yMRW5VYU7DVvZquwHkgRPiu5boZvKAmjRWlcDK5NWq4XAM4HyLN9VWzeZ/l62sZtAx4icJx5/L9LCV68ElhddtwacmSxpSttUuOhMRateoTUzwKCXTW0KudB080BGVE/LWK4CVhZUlWNXcuK7gaX5XzQZ+L7FhGQaGpRBvyELL4c/k8rcMpargKXDClo2GQ2ln5Fqv2WVfTQQgYragB4WJgs/V8lyEXvvj0cAW16oVwgjmqjZQWg+0TEWr68zwO8AwO46RrlvS5kPHZMxGnxkAleIoq57dSyWkC9JituNnkT4RB82WTaHq5MRyWTnrno3sLS57jSvkZzu/t5SAEuccTewPG7VkarRaQo/c448Qd0qg53A8uz3LKfaSd7lAoCmyuTW361lutvXscEljb0TWJ4Z7NrXk8Bd4Wp6ASyZgO7Zvrg+7bxMy2InsCwzuAIALWMJ3JV6ZTxspZ6LMbClOb3IplNpdgGrI4c9kpwE1rQAVBpJlzaN+n7q99ocTnPhXcDy+FVne3KzdQUQXASfXVsR7C1bZZ0TLVehtc/WRdrZjjS1q+NAf6++EvJUrXU0sCzi3q0RCKzuersmHJrwpHQaOS7Mj3fbjlQK057h6kr3JsHaGpm210YjXR5hF4iseiCDYy6bVR0EjfC2bFoCz7uAZSWbrRDsUQyrs95OoAFY3BLqrLejLsyP9xoVDaypkMNTgSVN7Qpx75ikkdaGl7W0mftROTMoukwrLwyx+taSRLkLWFYMq1OzSGDtGsMq6MhVpla8aryzLlRNqmLNSUvIYdekWMDqEDDlTVN7KnFHP2lSOrxhcsqu8UaHfOX8TXHjK4HVqbGeACypGVYXVQSEqnaVWsmal08LLA58ajVVZ2GhfNedEjtOfNMcWiEF6XxNacldGmu3V0hgdWrBBfy4j0rNsLIIZD3TsSXVSwlW3TcZLjoKWLvjWE8BFuZSnpxZudWl+1I5DVaZKrQcfd+lsTquJhppEAJrlbvs0FK6Tj2Bs+DacXjEy+w4FlhWdoNUqTzj9it14RrUfOYlk0/SWACa3iaZAVdLGEDIG+9GlC9Wl/n9ElhTpneXxvLuvYJAMaDojafRqZin3d6n71OYmiwRfwJYM5muADRDHwyyjrQ0uZaME0719UpgRTedWAP2TsmcBKzsZnNHdqb1po1RZD86eidlLuNtjwLWCp/RXkuXG7/SJzyreQ8Ps8Kc8wNzb2noWX6owTLyNkenpDxQSYcD/54K8O7SWNkBZSdWm8bugGG2H7rcyjhn9zitQw8eZ4uuNIJcrZdmynEdA6zokCr5AV/gzY1VXl7hcTBpFqVwZ1f+LJjkc5WLQ0YaotoX3e6IB9FRglz5gcxHTtKRwBrZdW+FaMF6K016lifwrMw1R3psUwFHVYnVbke9bGb5wpVuUzi6n6mqUi3PUmqtU3iW1Ai8DK7iiFS1FctblmEluu9p4uq8vdfTDSyPc0x1TpFjDpzbOKfwLEvb4m807ST0swAaPWeZ4o5truWjdd3A8q4ptNqBUHjzMW2+fr2JZRK5KqV2vJNn7QBMtk7LJHZcZHIcsLJ5WKPrgrSHo1clQIgTNfIll58VWNSMzAglIDPB0xF4jwKWZfMtE5gJ2kmuYHEtLZQubpHVFKeV8/jobFq0nKMp2XaaQou4e0lk6CyE4V2/rdV5BMZOj+g00GT7Y8l/Vi6S0kxxtt3A0kFADB6gYexqdIWkjM2M4kUdnCI7eaeXs+Q0A67jgTUCrj4biAiwDo6SO1lmNtqoPh0EO/oHKwBwaUtQNWdywU/tEOzUWNGuuEyAk1zAymyk647JQL1fH18CXtC2Aq5HA2sUOR/lY3+BKpZAZufCq+W4k9CzKR0WOew8OhVPw2uWmAVXyxWcnabQcnlH9ZMgejEoaC18Tr3/4AlwtDzFaBdEPhOVdWWwG1ijwCXNnUcOSUS9W1GeMLF399HSWpGXuBwcxaA7gYX6KklodI2nvI67Z+xB7es5ieJSLTcl7gbWSJWSR30Bay9K9f5tJO/lGNYOjWUF6DxzSE4WDXSv2F+7ds17M5xpOdSwA1gWgR/ZdBBFDPYrNvUtsOm9tWsW/jqNKYpltXiEO4Bl8awobfYLVN9gA03RlaXB6LsMLNPDHt2xtZySzBXQzbFQb9d+1ewqfeJz1BSRRhmNDSDKnBcY1bF8Z8NOYHkpHJ/xNSJZkK+kWUeA8q6EtPom+VXkPQ7HtkNjoUErRTnaO8xOwiuWk1o+aw5HgIKMqtpP86slp2oXsLzkvCg494qgyYxJbod5J5kgU/x8/wEar97K649lHVoZLGFj6eFAYt7BiupK4spEc91eU2bSryjj0Qe2rUm41SfINfsSBGZAwNzReVq+bE12aiewRinFWXC1XA19BTIa2pg5VV3NSZMpNXoO2vgVZLETWKh/dM4wOrxqeZdLdr9h8ndW4WUjyDYJpKr21gmAmu+28qsrgIU2omPoTFXG7x9+JP7eJRqZqPHOia/WjcnSx9miOmjydGLjbKzPI/jaQdD7icsKZ7mCSFIf30fgiqp5okcJYGHc3pnJaMwr33sBUs9blGawxcG6ClgZzeUJ8omgwlh0ijBPROM3LuSgFlp924T0FsFJR8f8La3f9vLLq8i7BZQR5/KAlY3rrKzwXc9meRPbJ9gi0wfvDyCpyNNboNXsh5SsrtRY0nXOXBeJ8k/jVZbQvcMNqQlyCnGxZSmGByoNzDZ53wEsDbCR+m4b6MosFp8FkCyNM+I9xSbe3zUILpQB1kiGOsTRwq+u8gozQsNkAGDyPgY89yR+lXl7BL00eVtxRj66DGNQ0UHeaJ9QHxhuC+fcqbG0sLyA6kl9HIFA9j+zIBhb4qKqAGwErGzQVGurVutw2qRZdzR0kvfsDceVSZZlJbiyuwv0IOnNYS+Qnp63lcO68Qz4Kk1vdksHbWpttZTNoAX2BGBVJigChL47Iio/8z3BldUcURsWuCKvMarT2j5qxUJrZdFoEt9bnCFjVhJVvxchj5u93ifbjhxH58LIth+V09qqjbSz4dOA5d243GUOqU3aBWnMpM7GZOwpmvTd31t0o420nwos9Gv3m8Ouum3ZCo5C+868R6cLbNE7jrra2Z7dMNNRyxx2eizyUtzdk+xpYLmdw+2d1a2djKytRbvFam2pNDPCQRkv6a0TBFfeZpMJYlIcmpR7JF0SemaMRmLfdcOy2e6JwLrCHEpNcgXfqoArAoj+PsOPrMXaaQX+r8+nAsvTWp3e3NWeW+ZVMBVQVfiaZQJb41a646cCC/2sHNevTAjLys3hKJt1pn7rmY4tnWp8zMuA2Dr3WytfnA0rK6DbbOltmKvOPpIjQYsh0o6PFwglz8q8eVaL3Nsm65bjY0whO2rdEthJ4tGOfufgVeBaXHepx71rzD89sKxY0A6hSLMLDfEK4IoyH7oX6C+QfrIpZEf1vlbnFo8UhgZXp6OQUi+NhTKOwtYF9ERgQf47tJaVo/5EzZUBlYybbRnjE4BlvVFs12p7OrgqoNoKrpOBFeWK79Ba9M7k27Qq8aJGa1auasSpEAwdnd5pH+OpwMqePunKerDcdA2uKM23jISmB6IFyAh7dGKoGh8bdv80YEVC0oPZReSpueA4yJW+ywTPYIzBVuR7eR+9bROBC/W05I+dAqyMkDzhtQjCqdwCeuvKnkFU8nSOJ5fM4l2mGScAq2ODdje4rHOQV20D6ZBI5oRPRBEy4FqyBncCq+LBQKXjbiyYpuiAwaQSCB/zFsBugFW1uXyTx+hG6iy4psIRdwArMyDOsr5MLHq23btRcEP71vsAUYwmsnJSxkMzwRTdxRCuhoAzRfLkuMrguhJYlZU3Mm0ZAkoNt5qVyT5zAvF/bAbjA4B5G8e8YQZgy/QB9eAHG9IdYNKAi+SpnRTLSYLFSF/LdBWwMjyqQooz4OJqq04ynquY6UhrYFzMUJAZoTLDIapj9ftIk2cWfWV+tue887iVx4ukyaveL4o6EZWvfDjJ/I2L3uSk49+doKr0bXfZKGM0C67U5vUujTXiIlKAq3GhKJAaRZx3T2ZH/TSnkKkXPac24UKhWZXvhs56eZF1ibTf+5h3ACvqmCS6VS1lTZTXHmMxBPloYkYAkKZstC0S1RFpbcqFQJKJfSOP1NsRsIh5Nh050tohSDuBlfEwILwdMafKCWpOsPyNe0/x/+jt77Mkm96tzBglEDFJXnboSKYZOWqAROZQLo6Ixw5jZV3Aymip2Yvts+bEA1fFVZZHzzOTUAkLVM3+6Exiiud8CE5mkYaaRgl7BK6hfFaBdaeWsgBn9SfrzeiJzJoN9iPDK6WZG7nu3kLNaCktl9UbkT0nabjtswKsjJZKEb2sSkqW87ybCGBd7+rLeFfkU/ito+NWHKuq7aSo9IKJtnssMVu5863AygptF5dKYuu92Ahg1hXZMgW6ajI87Zm9a3U0rqrm1HVpjTMDrPKdDxWNldFQXIkVDlABy0zZ0WJgDIthCRL65d190dEsXfDGNgMETcJlvG8GqBawhvVkgFURTOeEzIBo9EyGA/H57nEw1AENZoUswJ3gGaKcfjNHxomIZCXTu2d4mhUvHB7tzwDLO5umB7O6siLhdH2fAVg3sLQG4Y4E/m7NgTbLkugjCJres/toWM7hDLAsazXETgSsKLJ9ounLAnAEsN3AkhkS1hxYnhidD4yveip6FVjla7sjYEWvOts5AVmArJazOFj3uNgGnRrZZ8+krJov2YacxxmOpU9KhXVEwBqZwbDy1Rm/+PkdVxuRnzJibw3JoxCd7w9cBZa+szTCTbhXaAHrjtjUFRiT5qeDMFtuP7d05NaRxXk6Yk+exqpyYU2HUto8Ql5lD+6Kyd/dBlX+DmBpAs/jZZmTNFUwaDlJjZW5qM0DJf6eslQRsLz9qtWB7gbIbP1XXiFJEMscMfRbb4Tjb6vylhwpmnMtu6m3g0WNePtEu1f0LDBWn5Maurqyq21r3jJ6Xu4x8t+V9thWyoypiqdekhkBC214POvJt7F4kyI19KqWGE18Jt+J2axWPXLHgDn4OhOWz60Q9+mXZGaA5cWyZgJtlVV2R1mpoWdWd6bPUdKePOVT2ZvVbRNo3KbC95n5lvXovqa1eKYhzxx2bNRmJuLqMjt5ltb+MvuTQLDGy/dLS5BU5TIzX7K/JfqTAZZnDjtIZVU4V5TfYQ6t/dbSRIlsDfTPiosxMs/vvD3JSjq45FclC5UFlmcOq8K5AhirbXSbQ49PrZhaWefojgadthPlpEnZ6TlPm8GKzf0yh3NwjfZaUzEho2kJrKgOzN3MfV96Oy+rhN67Wynsbe+UVOTc/Fz+lCStM96hZfoYJtBHsrycfILS4kZVc60VQ4ZvyfhVWbtWgDVK7q/Y7ctRMtGgzImqmntLS2EiKSN9NF9+pz0ymXjIsALK4Cg+AYqFjVSa6COfwZjgfXofWXaKS1eA5ZnDaEBP/z6zuhkWyFwx9ER5VHBSNoV4IEqjeaLQMn32zOFKnCnT7gllymawyrFQPooYnyCIHX1gRgfNEH6Prmjc0Ye76oycA7NfVRWnPYy7BvvV7nUSqGLkvWf/A+jb7+Je439nAAAAAElFTkSuQmCC;strokeWidth=2;points=[];labelBackgroundColor=none;rounded=0;html=1;whiteSpace=wrap;" vertex="1" parent="34r35kRBPOAVTFGhnLEs-87">
            <mxGeometry x="7" y="3.5" width="33" height="33" as="geometry" />
          </mxCell>
        </UserObject>
        <mxCell id="34r35kRBPOAVTFGhnLEs-94" value="" style="endArrow=classic;html=1;rounded=0;startSize=2;endSize=5;" edge="1" parent="1">
          <mxGeometry width="50" height="50" relative="1" as="geometry">
            <mxPoint x="174.83" y="817" as="sourcePoint" />
            <mxPoint x="174.83" y="837" as="targetPoint" />
          </mxGeometry>
        </mxCell>
        <UserObject label="" tags="Background" id="34r35kRBPOAVTFGhnLEs-99">
          <mxCell style="vsdxID=1;fillColor=none;gradientColor=none;image;aspect=fixed;image=data:image/png,iVBORw0KGgoAAAANSUhEUgAAAJYAAACWCAYAAAA8AXHiAAAAAXNSR0IArs4c6QAAE5RJREFUeF7tXV2IXdUVXuuOTiYdGUXwD/NgYiVRFFEKttDoNIFEM/dcsBKJLSqIovahCfYhbaYPPpiYIIWmQlTMU6tEErBwzr2tiSTGRGkfRB+MMaImeVCsPxgdmDq59t5d1/Wucc+Zc8/Z55y979ln7j4QZiZn/6z97e+stfbafwiWPOvXrz9/enp6xdDQ0JUAcIUQYkmlUrlUCHERAFwIAOcDwCgAjADAMABULBHdtBhtAGgCwAwATAPA1wDwJSJ+3m63/4OIHwHA6Var9eHo6OiJffv20fvCHyxCgvHx8XPGxsZWCiF+hog/EULcQGQqQpYFWOdpRHxLCPEGIv5ramrq6OHDh//X73b2jVgTExPLENFDxFsRcbUQ4tx+N3YQ60PEb4UQB4UQLwkhgkajcbIfOBgl1po1a0aHh4fvRsS7AODmfjTI1ZGIwBEhxJ5ms/m3AwcOkGk18hghVq1WWy6E+A0APAAAi41I7grNi8A3APAsIu7yff+9vIWF82slVq1W+7EQYjMA3K9bUFeeUQR2I+IO3/c/0FWLNmJ5nvcYAEzqEsyVUwgCW4Mg+KOOmnMTq1qtrkPEPwHACh0CuTIKR+CEEOJ39Xr9H3kkyUUsz/Me/y6+8vs8Ari81iKwPQiCP2SVLhOx1q5de+Hw8PBfAWAia8UuXykQaDSbzXv279//ZVppUxNrYmLi6kqlshcArk1bmUtfSgSOtdvtOxuNxrtppE9FrFqtdkO73fYRcUmaSlzaciMghPioUqnUfN9/S7UlysQiTYWIBxypVKFdWOmIXEKINaqaS4lYXZ/qVWf+FhZZMrTmWLPZvEXF51Iilud5deeoZ+iGhZmlEQRBNalpicRyIYUkCAfyfWIoIpZY3eBnYyChc42ORUAIMREXRI0llud5NMR0EXVHsigETgRBcHUvaHoSy839OTYpINBzbjGSWN1VCu8rFOySDDgCiHhV1KqISGJ5nvesW/oy4IxRb/7uIAho3d2cZx6xuov0TqiX61IOOgKIuCK8WHAesTzP2/ndLpDfDjpYrv2pEPhLEAQb5RxziEVr1BctWvS5W06cClSXGOCbs2fPXiSvoZ9DrGq1+hAiPuWQcgikRUAI8XC9Xn+a880hlud5NB/odtOkRdWlJwSOBEFwyzxi0b6/SqXyocPIIZAVgXa7fSXvW5zVWNVqdSMi/jlroS6fQ0AIsaler9PgD2aJ5XnePwHgVgePQyAHAi8FQXDbLLG6Zyn81217zwGpywq0nX9qaupHdFZER2PVarVfCCEOOWwcAnkRQMRVvu+/0iGW53lbAGBr3kJdfocAbVoOgmAba6wXhRC3O1gcAnkRQMS/+77/S9ZYp9z5VHkh/SH/xRdfDNdddx3QT/5Hby+55JI5lbz99tudv48dOwafffYZ8N/6JCmkpNNBECxFOklvZmbmq0JESFkpddLq1as7ueQO42Koc+R/WTqKCXHttdd2yMF1yXV8+umns4QgUrRaLbj++utBzpOyaZ3kJDuVfejQITh48GCWIqzIMzIycgGuW7fupqGhoX9bIVGEENS5GzZsmO3ktHKyJqCfRIJeZLvrrrs6pCXC6nioPnqoPv5dJieRkElLmixcL5PshRdeKJ0ma7VaP0XP834FAM/rAFNnGUSojRs3RnY0gy53FHcMa5lesjDRSCtQpxOh6F/4IY3B2o/fcR1MiihCMJl27tw5j1Bx+LD5XLVq1byPiGTZs2dPqvJ09kWGsn5NxLJqREgAE6FkglAHE7hxGkduvEwyIgF3WhigZrMJw8N0Tu73D9XBhFMFk+SkOqLMIBE3LcFYi1G5RHhuC2NABCvBM4nVanUXIj5sg7BhUukEk8lFBGA/jdtMBNBhcphkYZNK5IoyiUmYs08pa1TC5P777T7XTgjxFNZqNStCDWFS0Zdp4uukzt+69YeQ3e7du8H3/aQ+Tv2etS5rnKzaizUYkZUJZju5KORApvAoAPw8NXKaM1Bns/mjL9zEqIg6mYhED3UOaxLNTZktLjzwoDq3bNmS2VeS/UHLyfUaEesdALjGFLgq5cqAmSIVySGTd3Jysm+jrfCIk0xZeKSoghOlKQm5jhOx6GaDy1UbZiIdmyLSUkQsE0+/yNtLdjZlbBp1kYtMLH0klj0fE7HOAMAFRQlGvgg703nAjpNfNoEmyZuEYTiEkqe98ofST+2b1Mbu+6+IWHTeN91PU8jTb21Vq9UKaSdXSiTftm1bJ4yQ1+di017kx9IDzBkiVquoC49IU5HGoifP16uqrUyNNNMyVTaLeYKfjJ+FjnybiCXSAqMrPZtBk34CmwzbwJdNWVbCy6GTojVxmBOFEouG/mQSTKpyNrVZO0/XRxRVTl7/UvYdTWn8rO0vlFjc6aZCDPIXbaGD2/mo2N/KorVlYtnWvsKI1Q//ylYzKGuBvGEQ/jgdsbqoysQy5R/YbAZlcrFLkHaU6DRWhKE2TSwZdBv9KxkS2WSncQvkfM7H6pPGMk3crE5tr3ystdL4Wja3sTAfy7T/Y7p83cTK4nM6YkX0gumO70eMLC+5wqtdeTmPqunmNtoWoyNcFqzG4umOcCfRV86rSuVdM7yJIcuCPFWCEZFo6XF4oWE4P8nywAPzTl+cVw0Ty2QcULVt1gRITWus8IgwvPAuDjATjrAcDA3XTRpH3kyhqoHYL0vj8GclStp8hWks09MRTKzjx4/DNdfMX27GmyUYsPCadZ3kkmNVpBF5XX14TRYRZOnSpUozETZH3Qs1hSaj4jLo8peWNOErTw6nGZ2pToKzyVq5ciXceOONcN5558GRI0fg6FFaxPvDQkQVH8tmx71QYpkM7oWJ1YtQmzdvhssuuwwWL14Mo6Oj8Mgjj3T8H15brkNrhU0+ac/t27fPcvHll1+GJ598svM3mzYVYtk+OCnMFKYFMq2NV5mHfOKJJ2D58uWzRb/++uuwY8eO2c0VKh2cJFfUIILWvY+NjXV2UMurP9PMFPRjAj+pbXHvCyUWg67L7MgNVZlDI81G00nj4+OdrKSxyO/JEqzsBXKv0WlUepWPgfKZ1PZ5yCTnLZRYJkeGKsTqBaI8gss7j6lq3tKQxXb/qlAfiyo3OTLkDs0y6593nZRMWNVYU5p5P4uXJM82vVCNleYrTaui88R4ZI2QhZhRxEoy92m0kKrJTIuZzvSFEsukA5+HWFlXG0R1jOocoCqxVNPpJEmWsgonlikHPg+xZE2qI6qtIosqYcpgBgv3sUgAUw58XnORZuif9EWrfDwqPpZOTZokc973hWssUxH4PKNCAlUnsVTMoQqxdI5W8xInKX/hxDKx0lPHoEAnsVR8SRWZbQ+KWhPHYkFUTEXSFyK/1zFBq5tY8kR0r6miOPOtovXSYGQ6beEay4SflTc+ZkqL8lavXlNFcU5+WZx2JqwVxNLtZ+kklo5RIYOdFHjtFaUvk9NuFbF0awjuCNUFc2GzIJutvFM6YRMdp7V6zSvK53rplMekObRCY1EDdfpZeQ/LMBUCoXbGaa0oYpVRW1kRx+KvJi8Z5K9PZege97WaPFpJ3lYf9rWiiFVGbWUVsVSG26qqO8+oUMcpMEly9hohhkeiZdVWVhFLtzlUmUaJIgBriKz+WRKp+H14zVfUh1WmgGi43db4WLrDDlmW7uoeRMSRLKy1aCsa7yskB73M2so6jaXTHGbpGFOjwV4Ekw8DOXPmTGeZNGvKsvpWVoUbZOB1jg5ls5Z0vrpM6qS1U6rmLild1D0+fGcOH6GpM46WJI/O91aZQmqYztGhPAJL2vqV95yqrJ0ia6YvvvgC7rvvvtkJ8H4RPKvscfmsI5butVDhA/d7aa6izkGg9j7zzDMwNDTUuauQLqLiLfh5V6+aIIxqmdYRSx4d6hqZhU0OmZvwTmjdk86qHUDpaFI6HFG38TyGNG2ykli65w5JK5DJ6XV1LhG4aC3Bjjx3XlmmbnqRzUpiERH4EA8dX67sx7z55pud7e29Hr5kk0xSWKul+WLTpA1fh3Lq1KnOh9Drvh368AgjPkiEr99LU6fptFYSK+zEJ43o4kCKulWM7xWkg0BYi8mnvXB5ac8EzdJZsnxR+ZnocXJSPh27trPIXyqNRcLKTnxWraV6Vd2uXbtgyZIlHYz4zmi+ltfkyCx8Cg1dxskXdUYRPdyJ8vFHjlgpPgs59JBWa8nTIXHElDuXzOSjjz7akbAf4Ye4AQNr1SgyEdmJ+PKd2baNIK01hXm0lryMN07jhDVG+Hq25557rnN4x8mTJ2HTpk0pPonkpHlmGcKHuNkYRLWaWLKvRb+rfJXyiDKKVOz4Eqlk5zfqnuW9e/fCyMgIfPLJJ/Dggw8msyVFiiwrMMJOviomKcTSltR6YskjxCRnWu4sOQbG545Gnf3ZS6PJBDWhse6991644447Oh1JpppO+aMAKT2yo05tCp82yL6gjgvStTEpVJD1xAqbxF5BU5lU/CXTT14xEAaQO5Oddfm9TCrueN03v8rmOk3nxsmdphzTaUtBrLBJDF8UHkUqIox8Oz3HpCg+FUUmBjpMKlPEYv9uenq648PxKDTc4XyKM8fVTBNCV/mlIRY1ODw1wwFEeWgu+2HyshQajscdtU0ahI7Kls9epw5ftmyZ0mGzaTskar2Y3I6sl5GnlcNU+lIRi0CgjpeH2QxMWItFEZF9E/opkzKsLYiA5L9s2LChU1/WOFpcp5Vtn2BaApaOWOxzcZyHCBI3pdGLiL2AkofuJjtf9aS/tB1qS/pSEisLePL8Go2yZE1HxIzyvUwSK+9pOFkw6GeegSFWFlD7QSyV2FwW2YvO44gV0wOmiJV332PRpFGp3xGrAGKpnt6n0oG2pnHEiukZ1ROP03Zuv3cDpZVPR3pHLAVi6V46k2XPo47O7mcZjlgFEstEfKyf5Imri4jVAoCKLQLZJIcpzbLQY1gA0CZifQMAIzZ1qC2ymDrOaKHHsABghoh1BgAusKUzbZLDBLGyrMOyCRNFWb4iYn0EAJcrZhioZDp3ZTNwZTukNmOHf0zEegcA5t9tm7HEhZQt71mmUVgMQgwLAI4Tseje2J8vJELoaouJCLmp2JiuNmsq5zWs1WovCiFu11Tggiomz4aHXkBkPRCuTMAi4t+xWq3uQsSHyyR4P2XVOYIzoQH7iYVqXUKIp8gUbqGl4aqZBi2dzvO6BsS/IopMErF+BQDPDxphVNsrhxzSbpqV69Cxs1tVZgvS/RrXrVt309DQ0L8tEMZKEXQRouxHP6bpnFar9VNcv379+TMzM1+lyThoaeVD2WjpctwunzA28r7Ijo2YnEyVv4xYj4yMXIAkuOd5pwDgijI2oh8yy0dOJm2aZXkoD6+35//TvUqiH23PUMfpIAiWdojlQg7J8MkjOt68EV4nT2TiXdfyNjIq3bbTYJJbnC0FhRp83/8layw3MlTAMWozK2WTjxMKF6Oq4RSqL0uSySAItrHG+oUQ4lBZJC9STtZKNFrs9bBGIy01aA8irvJ9/5UOscbHx88ZGxv7rxDi3EEDImt7iWC80ZV+5/2NaRz7rHXbmg8Rv52amvrR4cOH/9chVteB/ycA3Gqr0E6uUiDwUhAEt5Gks8SqVqsbEfHPpRDfCWklAkKITfV6feccYk1MTCyrVCofWimxE6oUCLTb7SsbjcbJOcTqmsNXAeDmUrTCCWkbAkeCILiFhZo1hfQf1Wr1IUR8yjaJnTz2IyCEeLherz8dSaw1a9aMLlq06HMAWGx/U5yEFiHwzdmzZy86cODAdCSxuuaQnK/fWiS0E8V+BP4SBMFGWcw5ppBe1Gq15UKIE/a3xUloCwKIuML3/fdiidXVWs/SpVS2CO7ksBqB3UEQPBCWcJ7G6mqtHwsh3re6OU44KxBAxKt83/9AiVhdrfUYLR+yQnonhK0IbA2C4I9RwkVqLE7oed67ALDC1lY5uQpF4EQQBFf3kiCWWNVqdR0iNgoV31VuJQJCiIl6vf6PTMTqmsTHvzvk4fdWts4JVRQC24Mg+ENc5bEaSzKJdQCYKKoVrl6rEGgEQVBNkkiJWGvXrr1weHiY5hF/OMc6qWT3fiEicKzZbN6yf//+L5Map0QsKmRiYuJqRDyAiN9fReqegUJACPGREGJNo9GgAV3io0wsKqlWq93Qbrd9R65EXBdUAiJVpVKp+b7/lmrDUhGLNVelUtnrzKIqxKVPd6zdbt+pqqm4tamJRRm7PtdfnUNfetIkNaDRbDbvUfGpwgVlIhYX4nmeC0UkdU153yeGFOKalotYVHA3iPonF6EvL4NCkp8QQvwuLvip0tLcxJK0l5tbVEHc7jQ95/7Siq2NWN1RI62K2OyW3KTthsLT70bEHVGrFLJKppVYLER3seBvAIDW6bhlzll7x2w+Ot//WUTcFV6kp6NaI8RiwWgN/fDw8N2ISPvR3e4fHT2Wv4wjQog9zWbzb/Ia9fzFzi3BKLHkqmjfIiJ6iHgrIq522/l1d2V0ebTtXQhxUAjxkhAi4H1/pmvvG7HkhnTPilgphPgZIv5ECHGDO59LW1efRsS3hBBvIOK/pqamjtJZCtpKVyyoEGJFyUYnC05PT68YGhq6kkgmhFhSqVQuFUJcBAAXAsD5ADDavfdneIAulmoDQJPupwEA2l719Xe7qL5ExM/b7fZ/EJFuFjndarU+HB0dPbFv3z56X/jzf9ERc6dJZhN3AAAAAElFTkSuQmCC;strokeWidth=2;points=[];labelBackgroundColor=none;rounded=0;html=1;whiteSpace=wrap;" vertex="1" parent="1">
            <mxGeometry x="268" y="766" width="50" height="50" as="geometry" />
          </mxCell>
        </UserObject>
        <UserObject label="" tags="Background" id="34r35kRBPOAVTFGhnLEs-100">
          <mxCell style="vsdxID=2;fillColor=none;gradientColor=none;image;aspect=fixed;image=data:image/png,iVBORw0KGgoAAAANSUhEUgAAAJYAAACWCAYAAAA8AXHiAAAAAXNSR0IArs4c6QAAEHlJREFUeF7tnV+oVNUXx9eaW9dbF1QEK8iHzP6o2IMQVFBpCle7M2egwMiingyyhxR6qLy9lZYPgfaggfaShJHQn7NnSi9opj+oIPAhS/tj+WBQCWaXbl6n7qyf6/5m+9t3e+acff7NnTuzDoTm7L323t/zmbXX/jsIbfKsWbNm1ujo6MKenp4FAHATEc0rFAo3ENFcAJgDALMAoB8A+gCgFwAKbVL1vKtRB4AaAIwBwCgA/AkA5xDxbL1e/xURzwDA6fHx8VP9/f0n9+3bx59P+YNTUYPly5dfNXPmzPuI6B5EvJOIljJMU1GXDizzNCIeI6KvEPHzkZGRo4cPH/631e1sGVjFYvFmRPQQcTUiriSiq1vd2G4sDxH/IaKDRLSfiFS1Wv2pFTrkCtbAwEB/b2/vE4i4FgDub0WDpIxIBY4Q0d5arbZneHiYu9ZcnlzAKpfLtxPRMwDwFABck0vNxWhaBS4AwC5E3OH7/ndpjdn5MwWrXC7fQkTPA8C6rCsq9nJVYDcibvV9/8esSskMLM/zXgGAoawqJnamRIHNSqmXsig5NVilUmkQEV8HgIVZVEhsTLkCJ4nouUql8nGamqQCy/O8Vy/Nr7yQpgKSt20VeE0p9WLS2iUCa9WqVXN6e3vfBoBi0oIl37RQoFqr1Z48cODAubi1jQ1WsVhcVCgU3gOAJXELk/TTUoHj9Xr9kWq1eiJO7WOBVS6Xl9brdR8R58UpRNJObwWI6EyhUCj7vn/MtSXOYLGnQsRhgcpV2s5Kx3AR0YCr53ICqxFTfSbdX2fBkqA1x2u12jKXmMsJLM/zKhKoJ3gNnZmlqpQqRTUtEiyZUoiSsCs/j5yKCAWrMflZ7UrppNGhChBRMWwSNRQsz/N4iCkz6gJZkAInlVKLmknTFCxZ+xOaHBRourYYCFZjl8IPDoYlSZcrgIi3Bu2KCATL87xdsvWly4lxb/5upRTvu5v0XAFWY5PeSXe7krLbFUDEhfZmwSvA8jxv+6VTIM92u1jS/lgKvKGU2mDmmAQW71GfMWPGWdlOHEtUSQxw4eLFi3PNPfSTwCqVSk8j4k5RShSIqwARra9UKm/qfJPA8jyP1wPlNE1cVSU9K3BEKbXsCrD43F+hUDglGokCSRWo1+sL9LnFyx6rVCptQMRtSY1KPlGAiDZWKhUe/MFlsDzP+wQAVos8okAKBfYrpR68DFbjLoW/5dh7CkklK/Bx/pGRkWv5rogJj1Uulx8gokOijSiQVgFEXOH7/qcTYHmetwkANqc1KvlFAT60rJTaoj3W+0T0kMgiCqRVABE/8H3/Ye2xfpb7qdJK6pZ/7dq1wP/9/vvv8PXXX8OhQ4cm/uyg57RSaj7yTXpjY2PnO6hhbdsUDZVdQYbs4MGDsHfv3rate5yK9fX1zcbBwcG7enp6voiTUdImU2Dz5s1wxx13wPbtE1M9sGLFion/10+neLHx8fG70fO8xwDgnWRSSa44CphgsYfi57rrrpvoGleuXDnJ1DSH7HEGS0aEcehIkZa9E8PF0KxbN/kKMQaMP7e9GBfH6dnLTaNYbAhLpdIORFyfQi/JGkOBDRs2THgn9li6S7SzM2TXX389LFmyZMKbmV3ldACMiHZiuVyWqYYYYKRNytDs3r17wszQ0FCkF+L0DKIJGAf57Rzo85QDd4VHAeDetIJJfncFzCkHs0tkiLZs2RLY7fFn7O10sB/m8dxrklvK/zBY3wDA4tyKEMNXKBDmtTgG427QjsF0oG96L469Nm3aNBGDtdnzLYPFv2xwY5tVrOOrw4CwB+KAnLtE/WjoyuVyUw10Xh3YtyFcvzBYfwDA7I5/k23WQLNrc4m17OrbcAV5uCls8nkGi+/75t+nkafFCmg4ksZLJlxJbeTU5DEGa7yLfvAoJx2TmdXBOudOOo1gLhO10WixzmBRMlkkVxYKpPVaZpfaTsG8gJUFHSlsaK/FfyaJtfRoUc+NtUuXKGClgCKrrM1GiHHsm11iUkDjlBeVVsCKUqgFn+sphqA1RNfizbmxNHZcy4tKJ2BFKdSCz7MAi6up1yH571PttQSsFoATVYTe9ZA2PmonryVgRb31FnyedmRoVrFdvJaA1QJwoorQYPFclt4AGJWn2eem17KXi5LaTJJPwEqiWsZ5tJfJAqx2ibUErIwhSWJOg8XrfeZOBfY+SXYutIPXErCSkJBxHr0X3hzJhW2fcSnejLWy8oQu5eo0AlYctXJKqyHQa33m4nLS9T97hNjqrTUCVk6wxDGrZ811sG16mzTrf+ZsfBo7cdoiHiuJWjnlsU/vmGBxkUlHd/bRslYejBWPlRMscczam/44vuKHu0F9iCLNTLrezszl8NMKwASsOATkmNaMiXQxPEpkb8YeLIv1PwbMPLfInpAD+yQjzygpBKwohVr4uRkT6eUdsztLGsjbTTCPlOXlvQSsFoLjUpQ+EW3OwOuukk/vJN1pGlR2nrtPBSyXt90GaTRcXBXzVE/aqumulu1nOd8lYKV9My3Mr7uw48ePR56gblYtbUP/aabL8o4IAauFYGRVlL77Ia49c+LVBooDeR1vZRHMC1hx3840Tm+fRcwyXrNlEbCmMShxq25fMJLVKDOoHrmAxaMNvoJHX2CRZkhrXqDBDfjtt9/g3XffTRxjJH0ZnE9PMLrY4DbbN8Jwfn09UdAUAP8b5zO7In0Bm52e57bMh8ty6cJsuPJa6skcrGb9OIsQd+utXvW3Rc1LDLucsLa4wGXOlje7f9TFjobLvE/L9/1JWe0tN1F2zdGg/hKk3WRolpk5WHy+rdk3O86oI+ql5unGWSC9fhf1gsI+12BFtcW1DPOLaYOVZMnHnijNMuZqKVhxvFYzb6VfQlzv5/rydDq7fN2d81Df5eEuW3dN9qIy59+2bRscO3asqam+vj7YuHEjLFq06HIac1knC7C04SyO+tsNaTlYLmteLt/wpCv+LlBwGtvzppk8tG199NFH8NZbb0VWpVAowIcffjgpnfZMWYLFBWjvxbFxFhOwuYPFAJhXTnMjol6S7S2CbJhg6WUQ05tFvrVGd/foo49eTmouyOYJFt/a98UXbjegb926dZLXygss03vx310GAmEa5w4Wx0L2LG+Y1wqKbfiF26MgEyy7q3GNv8L2Pdlwp+l6bUjbGSyXL6RLmpaAxS9FX1qhK9Us2LRftobQdv0mWEkhCPKMuhuwR3F6ZGbGWPpbzfFU2LdcwHJBMSKNLaL2HkHBcNAtdDZAutu07eYNlg5o485dMWT2HicBK0ewgjay2V4raPSk7+JsNVg6oGXPxd1zXMDMobuAlSNYbDqs6+HPbW9lxkpTAZYphwkWz55r8PhPHknZP1lielQBK2ewggLzsElEczZ5qsGKkiYoJtNdvYAVpZ7D581iLJ21WaBt57NHYe0OVlBX36wbN0eF8+fPn9iHftttt8H3338PX375JZgDhFZPNzi8YqckLRkVmoux9uSnXqeypxPsta+wbjSPUaGTekaioEldDZZdP3OClCdBFy9ePPGLFPo5ceIEvPzyy/DXX39dER5oXWybUXODcduTNn3LwQr6ZjNcZgwTNGcUd2og6uRv0Kgv6Wy+eXxLv5CwUSuDs2fPnkmeiT2Xucis05jAse1msOolJ9Yu7eRmWqg4f8vB4kKjlmyC5rjCwGoGa5hAQaO8sEnXuGKbHiRs56a26zLqNOuXZpFcg5fnjw7kDlaQiw6bI2rmNaK6uzTbUmwvEwRqHLCC2pC2fkGrFWltJtkR4apD5mBxrGR++5odiIzqPuwG2N/6IFH0miEP/83pAP67niKw/90sx+yCg+bUwkTlF8+Toxx4N/vJN64fw6A3/AXZC9ty1OyHm9h76TaHtdv0jnnvacscLFeizUbyS2/1r4cGeaU064Fx2x3VTdu/Ucjp84YhyzZMOVhZNiaOraC4x3XxOk45adIGhQzTBa6OAEvfSeD6Eu1tPDpf3O29ruWlSWd37wxWmnOFaeoSJ29HgJU2iGXB2m0eKM5LbMe0XQ2WDrhbeeqnHSHIo04dAVbQSMocBbJwes+UFrEdJhHzeKHtYrMjwGoXMaUe/1dAwBIaclFAwMpFVjEqYAkDuSggYOUiqxgVsISBXBQQsHKRVYwKWMJALgoIWLnIKkYFLGEgFwUErFxkFaMM1jgAFEQKUSBDBeoM1gUA6MvQqJgSBcYYrD8uXTA3W7QQBTJU4DyDdQYAbszQqJgSBX5hsL4BgMWihSiQoQLfMlhHAeDeDI2KKVHgP1gul98noodEC1EgKwUQ8QMslUo7EHF9VkbFjihARDu5K9zEd6KJHKJAhgoMMViPAcA7GRoVU6LA4zg4OHhXT0+P26XjIpgo4KDA+Pj43bhmzZpZY2Nj5x3SSxJRwEmBvr6+2cgpPc/7GQBucsoliUSBcAVOK6XmT4AlUw7CSlYK8FSD7/sPa48lI8OslBU7Q0qpLdpjPUBEh0QTUSCtAoi4wvf9TyfAWr58+VUzZ878m4iuTmtY8nevAoj4z8jIyLWHDx/+dwKsRgD/CQCs7l5ZpOUZKLBfKfUg27kMVqlU2oCI2zIwLia6VAEi2lipVLZPAqtYLN5cKBROdakm0uwMFKjX6wuq1epPk8BqdIefAcD9GZQhJrpPgSNKqWW62Ze7Qv6HUqn0NCLu7D5NpMVpFSCi9ZVK5c1AsAYGBvpnzJhxFgCuSVuQ5O8qBS5cvHhx7vDw8GggWI3ukIOvZ7tKFmlsWgXeUEptMI1M6gr5g3K5fDsRnUxbkuTvHgUQcaHv+9+FgtXwWrsAYF33SCMtTaHAbqXUU3b+KzxWw2vdQkQ/pChMsnaJAoh4q+/7PzqB1fBarwDAUJfoI81MpsBmpdRLQVkDPZZO6HneCQBYmKxMydXhCpxUSi1q1sZQsEql0iAiVjtcIGleAgWIqFipVD5OBFajS3wVAF5IULZk6VwFXlNKvRjWvFCPZXSJFQAodq5O0rIYClSVUqWo9E5grVq1ak5vby+vI/7vp0vl6VYFjtdqtWUHDhw4FyWAE1hspFgsLkLEYUScF2VUPu88BYjoDBENVKtVHtBFPs5gsaVyuby0Xq/7Alekrh2VgKEqFApl3/ePuTYsFljacxUKhfekW3SVeNqnO16v1x9x9VS6tbHB4oyNmOttCeinPTRRDajWarUnXWIq21AisLQRz/NkKiLq1UzfzyOnFMKalgosNtyYRH1dZuinL0FWzU8S0XNhk58uLU0NluG9ZG3RRfH2TtN07S9utTMDqzFq5F0Rz8uWm7ivYcrT70bErUG7FJLWLFOwdCUamwWfAQDepyPbnJO+nXzz8f3+uxBxh71JL4ticwFLV4z30Pf29j6BiGvl9E8WrysTG0eIaG+tVttj7lHPxLJhJFewzMryuUVE9BBxNSKulOP8Wb/KYHt87J2IDhLRfiJS+txf3qW3DCyzIY27Iu4jonsQ8U4iWir3c2X2qk8j4jEi+goRPx8ZGTnKdylkZt3R0JSAFVQ3vllwdHR0YU9PzwKGjIjmFQqFG4hoLgDMAYBZANDf+N2f3i76Yak6ANQubV0aAwA+XvXnpVNU5xDxbL1e/xUR+ZdFTo+Pj5/q7+8/uW/fPv58yp//AtZkbXr3XOl2AAAAAElFTkSuQmCC;strokeWidth=2;points=[];labelBackgroundColor=none;rounded=0;html=1;whiteSpace=wrap;" vertex="1" parent="1">
            <mxGeometry x="329" y="767" width="50" height="50" as="geometry" />
          </mxCell>
        </UserObject>
        <mxCell id="34r35kRBPOAVTFGhnLEs-106" value="" style="endArrow=classic;html=1;rounded=0;startSize=2;endSize=5;" edge="1" parent="1">
          <mxGeometry width="50" height="50" relative="1" as="geometry">
            <mxPoint x="292.83000000000004" y="816" as="sourcePoint" />
            <mxPoint x="292.83000000000004" y="836" as="targetPoint" />
          </mxGeometry>
        </mxCell>
        <mxCell id="34r35kRBPOAVTFGhnLEs-107" value="" style="group" vertex="1" connectable="0" parent="1">
          <mxGeometry x="270" y="836" width="110" height="40" as="geometry" />
        </mxCell>
        <mxCell id="34r35kRBPOAVTFGhnLEs-102" value="" style="rounded=1;whiteSpace=wrap;html=1;fillColor=#e1d5e7;strokeColor=#9673a6;strokeWidth=2;" vertex="1" parent="34r35kRBPOAVTFGhnLEs-107">
          <mxGeometry width="110" height="40" as="geometry" />
        </mxCell>
        <mxCell id="34r35kRBPOAVTFGhnLEs-101" value="VS" style="ellipse;whiteSpace=wrap;html=1;aspect=fixed;fontStyle=1;fillColor=#e1d5e7;strokeColor=#9673a6;strokeWidth=2;fontColor=#A680B8;" vertex="1" parent="34r35kRBPOAVTFGhnLEs-107">
          <mxGeometry x="9.263157894736821" y="6.25" width="27.5" height="27.5" as="geometry" />
        </mxCell>
        <mxCell id="34r35kRBPOAVTFGhnLEs-103" value="数据库状态对比" style="text;html=1;align=center;verticalAlign=middle;whiteSpace=wrap;rounded=0;" vertex="1" parent="34r35kRBPOAVTFGhnLEs-107">
          <mxGeometry x="45.15789473684208" y="6.25" width="57.89473684210527" height="30" as="geometry" />
        </mxCell>
        <mxCell id="34r35kRBPOAVTFGhnLEs-108" value="" style="endArrow=classic;html=1;rounded=0;startSize=2;endSize=5;" edge="1" parent="1">
          <mxGeometry width="50" height="50" relative="1" as="geometry">
            <mxPoint x="355.00000000000006" y="817" as="sourcePoint" />
            <mxPoint x="355.00000000000006" y="837" as="targetPoint" />
          </mxGeometry>
        </mxCell>
      </root>
    </mxGraphModel>
  </diagram>
</mxfile>
